<?xml version="1.0" encoding="UTF-8"?>
<svg xmlns="http://www.w3.org/2000/svg" xmlns:xlink="http://www.w3.org/1999/xlink" width="50px" height="50px" viewBox="0 0 50 50" version="1.1">
<g id="surface1">
<path style=" stroke:none;fill-rule:nonzero;fill:rgb(40%,17.647059%,56.862745%);fill-opacity:1;" d="M 0.0585938 23.320312 C 4.902344 34.453125 17.203125 36.320312 31.878906 26.882812 C 38.648438 33.148438 40.335938 40.578125 34.6875 48.054688 C 31.707031 49.308594 28.433594 50 25 50 C 11.191406 50 0 38.808594 0 25 C 0 24.433594 0.0195312 23.875 0.0585938 23.320312 Z M 22.921875 18.488281 C 25.109375 9.367188 31.21875 4.136719 40.828125 5.648438 C 46.425781 10.230469 50 17.199219 50 25 C 50 34.84375 44.3125 43.355469 36.042969 47.433594 C 43.554688 36.734375 37.417969 25.445312 22.921875 18.488281 Z M 25 0 C 30.359375 0 35.324219 1.6875 39.390625 4.554688 C 25.730469 2.96875 19.277344 14.355469 20.179688 30.082031 C 11.300781 32.804688 4.070312 30.800781 0.246094 21.480469 C 1.960938 9.339844 12.386719 0 25 0 Z M 25 0 "/>
</g>
</svg>
