<?xml version="1.0" encoding="UTF-8"?>
<svg xmlns="http://www.w3.org/2000/svg" xmlns:xlink="http://www.w3.org/1999/xlink" width="50px" height="50px" viewBox="0 0 50 50" version="1.1">
<defs>
<radialGradient id="radial0" gradientUnits="userSpaceOnUse" cx="23.012" cy="18.5" fx="23.012" fy="18.5" r="7.661" gradientTransform="matrix(1.149425,0,0,1.149425,-1.034486,-0.689661)">
<stop offset="0" style="stop-color:rgb(47.45098%,47.45098%,47.45098%);stop-opacity:1;"/>
<stop offset="1" style="stop-color:rgb(29.803922%,29.803922%,29.803922%);stop-opacity:1;"/>
</radialGradient>
</defs>
<g id="surface1">
<path style=" stroke:none;fill-rule:nonzero;fill:rgb(95.686275%,72.54902%,37.647059%);fill-opacity:1;" d="M 50 25.058594 C 50 38.832031 38.832031 50 25.058594 50 C 11.28125 50 0.117188 38.832031 0.117188 25.058594 C 0.117188 11.28125 11.28125 0.117188 25.058594 0.117188 C 38.832031 0.117188 50 11.28125 50 25.058594 Z M 50 25.058594 "/>
<path style=" stroke:none;fill-rule:nonzero;fill:rgb(90.196078%,43.529412%,19.607843%);fill-opacity:1;" d="M 45.058594 22.527344 C 45.058594 34.972656 34.972656 45.058594 22.527344 45.058594 C 10.085938 45.058594 0 34.972656 0 22.527344 C 0 10.085938 10.085938 0 22.527344 0 C 34.972656 0 45.058594 10.085938 45.058594 22.527344 Z M 45.058594 22.527344 "/>
<path style=" stroke:none;fill-rule:nonzero;fill:rgb(89.411765%,23.529412%,25.490196%);fill-opacity:1;" d="M 45.171875 19.65625 C 45.171875 30.449219 36.421875 39.195312 25.632812 39.195312 C 14.839844 39.195312 6.09375 30.449219 6.09375 19.65625 C 6.09375 8.863281 14.839844 0.117188 25.632812 0.117188 C 36.421875 0.117188 45.171875 8.863281 45.171875 19.65625 Z M 45.171875 19.65625 "/>
<path style=" stroke:none;fill-rule:nonzero;fill:rgb(74.117647%,81.568627%,25.490196%);fill-opacity:1;" d="M 45.054688 21.148438 C 45.054688 31.050781 37.027344 39.078125 27.125 39.078125 C 17.222656 39.078125 9.195312 31.050781 9.195312 21.148438 C 9.195312 11.246094 17.222656 3.21875 27.125 3.21875 C 37.027344 3.21875 45.054688 11.246094 45.054688 21.148438 Z M 45.054688 21.148438 "/>
<path style=" stroke:none;fill-rule:nonzero;fill:rgb(42.745098%,70.980392%,29.803922%);fill-opacity:1;" d="M 42.527344 22.527344 C 42.527344 31.734375 35.066406 39.195312 25.863281 39.195312 C 16.65625 39.195312 9.195312 31.734375 9.195312 22.527344 C 9.195312 13.324219 16.65625 5.863281 25.863281 5.863281 C 35.066406 5.863281 42.527344 13.324219 42.527344 22.527344 Z M 42.527344 22.527344 "/>
<path style=" stroke:none;fill-rule:nonzero;fill:rgb(68.235294%,85.490196%,90.196078%);fill-opacity:1;" d="M 37.125 19.769531 C 37.125 27.449219 30.898438 33.675781 23.21875 33.675781 C 15.539062 33.675781 9.3125 27.449219 9.3125 19.769531 C 9.3125 12.089844 15.539062 5.863281 23.21875 5.863281 C 30.898438 5.863281 37.125 12.089844 37.125 19.769531 Z M 37.125 19.769531 "/>
<path style=" stroke:none;fill-rule:nonzero;fill:rgb(33.72549%,72.156863%,87.058824%);fill-opacity:1;" d="M 37.125 17.46875 C 37.125 23.945312 31.878906 29.195312 25.402344 29.195312 C 18.925781 29.195312 13.679688 23.945312 13.679688 17.46875 C 13.679688 10.996094 18.925781 5.746094 25.402344 5.746094 C 31.878906 5.746094 37.125 10.996094 37.125 17.46875 Z M 37.125 17.46875 "/>
<path style=" stroke:none;fill-rule:nonzero;fill:rgb(0%,69.411765%,83.529412%);fill-opacity:1;" d="M 37.125 19.078125 C 37.125 24.730469 32.546875 29.3125 26.894531 29.3125 C 21.246094 29.3125 16.664062 24.730469 16.664062 19.078125 C 16.664062 13.429688 21.246094 8.847656 26.894531 8.847656 C 32.546875 8.847656 37.125 13.429688 37.125 19.078125 Z M 37.125 19.078125 "/>
<path style=" stroke:none;fill-rule:nonzero;fill:url(#radial0);" d="M 34.136719 20.460938 C 34.136719 25.285156 30.226562 29.195312 25.402344 29.195312 C 20.578125 29.195312 16.667969 25.285156 16.667969 20.460938 C 16.667969 15.636719 20.578125 11.722656 25.402344 11.722656 C 30.226562 11.722656 34.136719 15.636719 34.136719 20.460938 Z M 34.136719 20.460938 "/>
<path style=" stroke:none;fill-rule:nonzero;fill:rgb(13.333333%,12.156863%,12.156863%);fill-opacity:1;" d="M 34.136719 20.460938 C 34.136719 25.285156 30.226562 29.195312 25.402344 29.195312 C 20.578125 29.195312 16.667969 25.285156 16.667969 20.460938 C 16.667969 15.636719 20.578125 11.722656 25.402344 11.722656 C 30.226562 11.722656 34.136719 15.636719 34.136719 20.460938 Z M 34.136719 20.460938 "/>
<path style=" stroke:none;fill-rule:nonzero;fill:rgb(100%,100%,100%);fill-opacity:1;" d="M 30.03125 14.785156 C 29.160156 14.394531 27.953125 15.207031 27.328125 16.597656 C 26.703125 17.988281 26.902344 19.429688 27.769531 19.820312 C 28.640625 20.207031 29.847656 19.398438 30.472656 18.007812 C 31.097656 16.617188 30.898438 15.175781 30.03125 14.785156 Z M 30.03125 14.785156 "/>
</g>
</svg>
